PathFileType	4	(X/Y/Z)	60_2_62_p1_0-252.trc
DataRate	CameraRate	NumFrames	NumMarkers	Units	OrigDataRate	OrigDataStartFrame	OrigNumFrames
59.0	59.0	5	27	m	59.0	126	253
Frame#	Time	RHip			RKnee			RAnkle			RBigToe			RSmallToe			RHeel			LHip			LKnee			LAnkle			LBigToe			LSmallToe			LHeel			Neck			Head			Nose			RShoulder			RElbow			RWrist			RThumb			RIndex			RPinky			LShoulder			LElbow			LWrist			LThumb			LIndex			LPinky			
		X1	Y1	Z1	X2	Y2	Z2	X3	Y3	Z3	X4	Y4	Z4	X5	Y5	Z5	X6	Y6	Z6	X7	Y7	Z7	X8	Y8	Z8	X9	Y9	Z9	X10	Y10	Z10	X11	Y11	Z11	X12	Y12	Z12	X13	Y13	Z13	X14	Y14	Z14	X15	Y15	Z15	X16	Y16	Z16	X17	Y17	Z17	X18	Y18	Z18	X19	Y19	Z19	X20	Y20	Z20	X21	Y21	Z21	X22	Y22	Z22	X23	Y23	Z23	X24	Y24	Z24	X25	Y25	Z25	X26	Y26	Z26	X27	Y27	Z27	
126	2.135593220338983	0.3446864776547941	0.5094119355607744	-0.17787910616974992	0.3213060939035344	0.6047336107821369	0.19830633206957712	0.29438694784811714	0.8764275639505067	0.5748834231500153	0.28746671047932937	0.6558763431966825	0.6932922263405609	0.3580883825379768	0.7256272707628144	0.6836962636770251	0.27679323556391155	0.907350834693044	0.599739327427195	0.1445995001646485	0.4557841147668248	-0.18029592674523534	0.13690572519109367	0.6115071334227835	0.19368478270395753	0.13813698168667915	0.7879155170065555	0.5647824383894234	0.1310005288239019	0.6555753308293328	0.6855576573798016	0.07107338882854503	0.6787140909062999	0.6649417999532132	0.14872314181104954	0.8894907455217956	0.6070509842328922	0.24482532089388706	0.28386926049945654	-0.7428467051630729	0.24999197492462127	0.13679543660245186	-0.955998338486653	0.24601699296876806	0.12836728420350646	-0.8148348316427707	0.40701426701051985	0.33969151427185124	-0.6645250473071277	0.4400029183286249	0.44102719708619226	-0.42908704204780984	0.43794481126625734	0.24624918571724744	-0.25402266783980404	0.40241947323877847	0.09281301584981193	-0.1851673615715796	0.41496554376262784	0.09930943869043427	-0.17325019897922395	0.42992602061464386	0.1513257995654124	-0.1532314810832798	0.08865536922112192	0.3329341497592445	-0.670363881613366	0.04976008760223391	0.4293801213267842	-0.41413261170967863	0.016865204678467145	0.2419447777448652	-0.2699579706489899	0.038684642949895785	0.12213811872402874	-0.21237776672549336	0.010311820418008806	0.07627530330195628	-0.1966278288833615	-0.009283734807268983	0.21515258868059423	-0.1671309906628134
127	2.152542372881356	0.34463361481427446	0.5095052318637769	-0.17798253178723844	0.322049773675708	0.6032655866047646	0.19374635039181723	0.2944102098968731	0.8763751144638796	0.5748321554975433	0.28744139461124707	0.6555564994088928	0.6933753857547753	0.3569792629117344	0.7221066462523185	0.6792749849036872	0.27783446492262115	0.9106284448249585	0.6045780708757842	0.14445996078340953	0.4551338309332278	-0.18394376242185106	0.13679453432647334	0.6116339617204034	0.19354283639809658	0.13820157813441042	0.7876144699641856	0.5646566091587731	0.13018168476799621	0.6528346176523463	0.6809839607503962	0.0721432101075092	0.6770887182758734	0.6609067891508289	0.14879932571716434	0.8888479947188495	0.6066458133423658	0.24484360052898574	0.28394815763860887	-0.7428307595233626	0.25001933417210986	0.13679439851932482	-0.9559790627548717	0.24605157333794464	0.12842428617263876	-0.8147945209754694	0.40701806466249807	0.33963556468429074	-0.6645112335854261	0.43575185231890634	0.4284316184202137	-0.4274435214700643	0.43818353739799815	0.24681723117333507	-0.25377036617030624	0.40622365250723463	0.09342893134107218	-0.18515632524884224	0.41522188548015226	0.09994422606163136	-0.1705921010804037	0.4303008233509884	0.14272646750675022	-0.15636362311559684	0.08866775829837677	0.3329929961633498	-0.6704316503141606	0.04985650105063925	0.42923491333044866	-0.4141986277550382	0.01688049227639171	0.2419364137120306	-0.27001064122433704	0.03878985557001977	0.12220588987619979	-0.21217127269116107	0.009590632048860456	0.07518906925271952	-0.19641486274144648	-0.005601121549977688	0.21548779464861603	-0.16721524624110726
128	2.169491525423729	0.34433299069065637	0.5087825685476135	-0.18192482304574553	0.32208423048886853	0.6032159397314858	0.19358536748098723	0.29439540408131987	0.8764514243100343	0.5748565824939259	0.2875004713199857	0.6556441492677006	0.6932512387492976	0.3581181062417017	0.7251385368327531	0.6836469955123873	0.2778638366387316	0.91074775639621	0.6043527397130712	0.1449350552425821	0.45437217388288	-0.18735055068993467	0.1368790510077638	0.611584618876597	0.193386843688784	0.13825397377244922	0.7878492055684649	0.5646511877354962	0.13020697475285617	0.6527972054100619	0.6809845744351193	0.07086230011497267	0.6786128615453216	0.660393789891603	0.1488908939101299	0.889179350127163	0.6065669748040327	0.24482599694153376	0.28393846757192887	-0.742880860740182	0.25000547471258927	0.13683346980506578	-0.9560249123437938	0.24624468372751362	0.12963242791068516	-0.8115444457814788	0.4069525562752067	0.33953534744346153	-0.6645864929610217	0.43569580914606665	0.42845513858891043	-0.42749302930341987	0.43740172255675663	0.2445506148127243	-0.26078568628144355	0.40669335019959235	0.09291409095073895	-0.18849667419334626	0.41876788378513524	0.10023663686084094	-0.17100031432743	0.4302118700167805	0.1422647821580705	-0.1563204435782732	0.08866766412162982	0.33303040902922804	-0.6705328185704892	0.05030136847110024	0.4285305241557032	-0.4172600693663659	0.014795478454083804	0.22985110904826242	-0.26912669455923993	0.036661563371893045	0.11250018616048328	-0.2112713218065604	0.009689487927675355	0.07602524880102239	-0.19320428372316262	-0.008152490155449717	0.20197551543627523	-0.16977795745785237
129	2.1864406779661016	0.34433709212775404	0.5084662217089483	-0.1819967453227293	0.3178495343533111	0.6018593425364683	0.19373680572111812	0.290777512319229	0.861379744397156	0.5722579632972713	0.2876879711835988	0.6552854224373886	0.6931279347122181	0.3585748155931891	0.7242283199473127	0.6877497107030074	0.277902089517327	0.9107696322811304	0.6043888006535413	0.13960312975273398	0.46871055690366875	-0.18459590647631116	0.12759546952564516	0.6257134659531992	0.1948316786873511	0.13806259725670816	0.787021764493627	0.564584568997551	0.1310407112697496	0.6556551995977048	0.6854580626802468	0.07287191027702734	0.6797628138840399	0.6653787110224079	0.14878936262901482	0.8888098019830845	0.6065453608820544	0.24483727057451152	0.28397681132936414	-0.7428837216659006	0.24999577430310702	0.13677046110991667	-0.9559832043417401	0.24624214248717727	0.12987479134352845	-0.8114677400041227	0.4069274818371649	0.3395172145668325	-0.6646043741824128	0.43547061157716244	0.42742363076758394	-0.43091762811789325	0.4374892485211563	0.24446454641574658	-0.2609640012362233	0.40678862468842536	0.09273755895731063	-0.18845500671830803	0.41830721942547944	0.0986121168005329	-0.17461632182278633	0.4274070979169341	0.15425162695918446	-0.15689364009314277	0.08865986679719595	0.33291817808188373	-0.6705141865980546	0.043145756208587786	0.42855816436717653	-0.41739064989112673	0.014767313366350076	0.2296089022786399	-0.2691103187074939	0.03905000357717557	0.12227864942252623	-0.21178020038173062	0.0093576345295308	0.07628797399212814	-0.1899770794467079	-0.00388860285086413	0.1918005924227954	-0.16617999658826088
130	2.2033898305084745	0.3443477480512094	0.5084278593252983	-0.18199662265048663	0.3178903480851903	0.6020314624772035	0.19377679123253325	0.29445559681640565	0.876585065283633	0.5749979022287633	0.28761635174376754	0.6554016806387095	0.6931896884286922	0.35854899154196973	0.724541180827394	0.6878094069926601	0.27783941587207023	0.9107558012894208	0.6049109338893338	0.1394747598021202	0.4687786944248583	-0.1845858489325894	0.1275925572233932	0.6255445831474331	0.1949278824024202	0.1381101801781146	0.7872348185540792	0.5646156764363688	0.13018936535413514	0.6528229907221316	0.680830848896853	0.072122583836795	0.6767135969422292	0.6608266338028966	0.14882227534609635	0.8890676484631734	0.6066836188228819	0.24482883440140332	0.283931793324402	-0.7428923278412874	0.24997723107799252	0.13682895619146504	-0.9560327850926212	0.2494431238078697	0.14047386452328653	-0.8144744614434977	0.40691203837031903	0.3394308786128336	-0.6645551963093831	0.43547458639047304	0.4274331874886599	-0.4309510865824535	0.4380909661948106	0.24596117441635193	-0.25742263559874856	0.4105256559235824	0.09328368389212453	-0.18846110983252864	0.4182822445055479	0.0978348820773223	-0.17764541245433496	0.42709690742267836	0.15396674497790402	-0.156918309275231	0.08592614124982915	0.32086796633181014	-0.6679213420898126	0.04323372372968162	0.42824759820521324	-0.4173259026070662	0.014341603322200977	0.22998018725914227	-0.26610241929667444	0.036285598197915665	0.11006064101909727	-0.21422287199357598	0.009224907525531874	0.0751193993768494	-0.19324083261026767	-0.005575884771659542	0.2051963848028917	-0.16023482418722332
